<svg width="40" height="40" viewBox="0 0 40 40" fill="none" xmlns="http://www.w3.org/2000/svg">
<path fill-rule="evenodd" clip-rule="evenodd" d="M17.9386 20.6543L18.2389 17.7993C15.5974 18.3834 13.5062 20.3574 12.7302 22.9824L15.2749 22.5984C16.4906 22.4321 17.7723 21.8704 17.9386 20.6543ZM12.3185 23.0445C13.1038 20.1593 15.3858 17.9855 18.2807 17.3965L19.2679 8L19.2676 20.2626L19.2683 20.4148C19.2743 21.4381 19.2818 22.7278 18.5868 23.4382C17.828 24.2122 16.1995 24.241 15.1159 24.2287L3 24.4534L12.3185 23.0445ZM22.0614 20.6542C22.2277 21.8704 23.5091 22.4317 24.7252 22.5984L27.2587 22.9808C26.4826 20.4031 24.398 18.4375 21.7635 17.8151L22.0614 20.6542ZM20.7317 20.4167L20.7324 20.263V8.00075L21.7209 17.4103C24.6103 18.0412 26.8858 20.208 27.6715 23.0442L37 24.4537L24.8841 24.2291C23.8001 24.2414 22.1716 24.2126 21.4137 23.4386C20.719 22.7281 20.7261 21.4398 20.7317 20.4167Z" fill="#125A9C"/>
</svg>
